<svg width="121" height="37" viewBox="0 0 121 37" fill="none" xmlns="http://www.w3.org/2000/svg">
<path d="M115.803 36.0489H4.27406C1.95669 36.0489 0.0704346 34.1573 0.0704346 31.8417V4.69364C0.0704346 2.37715 1.95669 0.492676 4.27406 0.492676H115.803C118.12 0.492676 120.073 2.37715 120.073 4.69364V31.8417C120.073 34.1573 118.12 36.0489 115.803 36.0489Z" fill="#A6A6A6"/>
<path d="M119.213 31.8426C119.213 33.7235 117.69 35.2471 115.805 35.2471H4.2753C2.39171 35.2471 0.862793 33.7235 0.862793 31.8426V4.69276C0.862793 2.81273 2.39171 1.28381 4.2753 1.28381H115.804C117.69 1.28381 119.212 2.81273 119.212 4.69276L119.213 31.8426Z" fill="black"/>
<path d="M26.8508 18.0788C26.825 15.2139 29.1966 13.8201 29.3051 13.7552C27.9619 11.7969 25.8801 11.5294 25.1486 11.508C23.4001 11.324 21.7041 12.5543 20.8134 12.5543C19.9049 12.5543 18.5333 11.5258 17.0551 11.556C15.1528 11.5854 13.3732 12.6867 12.3972 14.397C10.383 17.8841 11.8852 23.0087 13.815 25.8274C14.7804 27.2078 15.9084 28.7492 17.3849 28.695C18.8293 28.6354 19.3689 27.7741 21.112 27.7741C22.8392 27.7741 23.3459 28.695 24.8517 28.6603C26.4019 28.6354 27.3779 27.2736 28.3095 25.8807C29.4251 24.2985 29.8731 22.7402 29.8909 22.6602C29.8544 22.6478 26.8801 21.5126 26.8508 18.0788Z" fill="white"/>
<path d="M24.0059 9.65377C24.7828 8.6822 25.3144 7.3604 25.1668 6.01904C24.0424 6.06882 22.6361 6.79683 21.8263 7.74707C21.1099 8.58442 20.4699 9.95689 20.6352 11.2476C21.8983 11.3418 23.1952 10.6102 24.0059 9.65377Z" fill="white"/>
<path d="M47.7566 28.4968H45.7379L44.6321 25.0221H40.7885L39.7351 28.4968H37.7698L41.5778 16.6672H43.9299L47.7566 28.4968ZM44.2988 23.5642L43.2988 20.4753C43.193 20.1597 42.9948 19.4166 42.7023 18.2468H42.6667C42.5503 18.7499 42.3627 19.4931 42.105 20.4753L41.1227 23.5642H44.2988Z" fill="white"/>
<path d="M57.5496 24.1269C57.5496 25.5776 57.1576 26.7243 56.3736 27.5661C55.6713 28.3155 54.7993 28.6897 53.7584 28.6897C52.6348 28.6897 51.8277 28.2861 51.3361 27.479H51.3006V31.9724H49.4054V22.7749C49.4054 21.8629 49.3814 20.9269 49.3352 19.9669H51.0019L51.1077 21.3189H51.1432C51.7752 20.3002 52.7344 19.7917 54.0215 19.7917C55.0277 19.7917 55.8678 20.1891 56.5398 20.9847C57.2136 21.7811 57.5496 22.8282 57.5496 24.1269ZM55.6189 24.1963C55.6189 23.366 55.4322 22.6816 55.0571 22.1429C54.6473 21.5811 54.0971 21.3002 53.4073 21.3002C52.9397 21.3002 52.5148 21.4567 52.1353 21.7651C51.7548 22.0762 51.5059 22.4825 51.3895 22.9856C51.3308 23.2203 51.3015 23.4123 51.3015 23.5634V24.9856C51.3015 25.6061 51.4917 26.1296 51.8721 26.5572C52.2526 26.9848 52.7468 27.1981 53.3548 27.1981C54.0686 27.1981 54.6242 26.9225 55.0215 26.3732C55.4198 25.823 55.6189 25.0976 55.6189 24.1963Z" fill="white"/>
<path d="M67.3606 24.1269C67.3606 25.5776 66.9686 26.7243 66.1837 27.5661C65.4823 28.3155 64.6103 28.6897 63.5694 28.6897C62.4458 28.6897 61.6387 28.2861 61.148 27.479H61.1125V31.9724H59.2173V22.7749C59.2173 21.8629 59.1933 20.9269 59.1471 19.9669H60.8138L60.9196 21.3189H60.9551C61.5862 20.3002 62.5454 19.7917 63.8334 19.7917C64.8388 19.7917 65.6788 20.1891 66.3526 20.9847C67.0237 21.7811 67.3606 22.8282 67.3606 24.1269ZM65.4299 24.1963C65.4299 23.366 65.2423 22.6816 64.8672 22.1429C64.4574 21.5811 63.909 21.3002 63.2183 21.3002C62.7498 21.3002 62.3258 21.4567 61.9454 21.7651C61.5649 22.0762 61.3169 22.4825 61.2005 22.9856C61.1427 23.2203 61.1125 23.4123 61.1125 23.5634V24.9856C61.1125 25.6061 61.3027 26.1296 61.6814 26.5572C62.0618 26.9839 62.556 27.1981 63.1658 27.1981C63.8796 27.1981 64.4352 26.9225 64.8325 26.3732C65.2308 25.823 65.4299 25.0976 65.4299 24.1963Z" fill="white"/>
<path d="M78.3301 25.1794C78.3301 26.1856 77.9808 27.0043 77.2794 27.6363C76.5088 28.327 75.4359 28.6719 74.0572 28.6719C72.7843 28.6719 71.7638 28.4266 70.9913 27.935L71.4305 26.3554C72.2625 26.8585 73.1754 27.111 74.1701 27.111C74.8838 27.111 75.4394 26.9492 75.8385 26.6274C76.2359 26.3056 76.4341 25.8736 76.4341 25.3349C76.4341 24.8549 76.2705 24.4505 75.9425 24.1225C75.6163 23.7945 75.0714 23.4896 74.3105 23.2078C72.2394 22.4353 71.2047 21.3038 71.2047 19.8157C71.2047 18.8433 71.5673 18.0459 72.2936 17.4255C73.0172 16.8041 73.9825 16.4939 75.1896 16.4939C76.2661 16.4939 77.1603 16.6815 77.8741 17.0557L77.4003 18.6006C76.7337 18.2379 75.9799 18.0566 75.1363 18.0566C74.4696 18.0566 73.9487 18.221 73.5754 18.5482C73.2598 18.8406 73.1016 19.1971 73.1016 19.6193C73.1016 20.0868 73.282 20.4735 73.6447 20.7775C73.9603 21.0584 74.5336 21.3624 75.3656 21.6904C76.3834 22.1002 77.131 22.5793 77.6119 23.1287C78.091 23.6762 78.3301 24.3616 78.3301 25.1794Z" fill="white"/>
<path d="M84.5954 21.389H82.5065V25.5305C82.5065 26.5838 82.8745 27.11 83.6123 27.11C83.9509 27.11 84.2318 27.0807 84.4541 27.022L84.5065 28.4612C84.1332 28.6007 83.6416 28.671 83.0327 28.671C82.2842 28.671 81.6993 28.4425 81.2771 27.9865C80.8567 27.5296 80.6451 26.7634 80.6451 25.6869V21.3873H79.4006V19.965H80.6451V18.4032L82.5065 17.8414V19.965H84.5954V21.389Z" fill="white"/>
<path d="M94.0205 24.1616C94.0205 25.4727 93.6453 26.5492 92.8969 27.391C92.112 28.2576 91.0702 28.6896 89.7715 28.6896C88.5199 28.6896 87.5235 28.2745 86.7803 27.4443C86.0372 26.6141 85.6656 25.566 85.6656 24.3029C85.6656 22.9811 86.0479 21.8984 86.815 21.0566C87.5803 20.2139 88.6133 19.7926 89.9119 19.7926C91.1635 19.7926 92.1706 20.2077 92.9307 21.0388C93.6578 21.8451 94.0205 22.886 94.0205 24.1616ZM92.0542 24.2229C92.0542 23.4362 91.8862 22.7615 91.5458 22.1989C91.1484 21.518 90.5804 21.1784 89.8444 21.1784C89.0826 21.1784 88.5039 21.5189 88.1066 22.1989C87.7661 22.7624 87.5981 23.4478 87.5981 24.2585C87.5981 25.0451 87.7661 25.7198 88.1066 26.2816C88.5164 26.9625 89.0888 27.3021 89.8275 27.3021C90.5511 27.3021 91.1191 26.9554 91.5289 26.2638C91.8782 25.6905 92.0542 25.0087 92.0542 24.2229Z" fill="white"/>
<path d="M100.181 21.6336C99.9935 21.5989 99.7935 21.5811 99.5837 21.5811C98.917 21.5811 98.4015 21.8327 98.0388 22.3367C97.7232 22.7811 97.565 23.3429 97.565 24.0212V28.4968H95.6708L95.6885 22.6531C95.6885 21.67 95.6645 20.7749 95.6174 19.9678H97.2681L97.3375 21.5998H97.3899C97.5899 21.0389 97.9055 20.5873 98.3375 20.2486C98.7597 19.9438 99.2157 19.7917 99.7073 19.7917C99.8824 19.7917 100.041 19.8042 100.181 19.8264V21.6336Z" fill="white"/>
<path d="M108.657 23.8283C108.657 24.1678 108.635 24.4541 108.587 24.6878H102.902C102.924 25.5305 103.199 26.175 103.727 26.6194C104.206 27.0168 104.826 27.2159 105.586 27.2159C106.428 27.2159 107.196 27.0817 107.887 26.8123L108.184 28.1279C107.377 28.4799 106.424 28.655 105.324 28.655C104.002 28.655 102.963 28.2657 102.208 27.4879C101.454 26.7101 101.076 25.6656 101.076 24.3554C101.076 23.0691 101.427 21.998 102.13 21.1438C102.866 20.2318 103.861 19.7758 105.113 19.7758C106.342 19.7758 107.273 20.2318 107.905 21.1438C108.405 21.8682 108.657 22.7643 108.657 23.8283ZM106.85 23.3367C106.862 22.7749 106.738 22.2896 106.482 21.8798C106.154 21.3527 105.65 21.0896 104.971 21.0896C104.352 21.0896 103.848 21.3465 103.463 21.862C103.147 22.2718 102.96 22.7634 102.902 23.3358H106.85V23.3367Z" fill="white"/>
<path d="M43.6725 9.38973C43.6725 10.436 43.3587 11.2235 42.732 11.7524C42.1516 12.2404 41.3267 12.4849 40.2582 12.4849C39.7284 12.4849 39.2751 12.4618 38.8955 12.4156V6.69902C39.3906 6.61901 39.924 6.57812 40.5 6.57812C41.5178 6.57812 42.2849 6.79946 42.8022 7.24214C43.3818 7.74259 43.6725 8.45816 43.6725 9.38973ZM42.6902 9.41551C42.6902 8.73727 42.5107 8.21726 42.1516 7.85459C41.7924 7.49281 41.268 7.31147 40.5773 7.31147C40.284 7.31147 40.0342 7.33103 39.8271 7.37192V11.7178C39.9417 11.7355 40.1515 11.7435 40.4564 11.7435C41.1693 11.7435 41.7196 11.5453 42.1071 11.1489C42.4947 10.7524 42.6902 10.1746 42.6902 9.41551Z" fill="white"/>
<path d="M48.8803 10.3035C48.8803 10.948 48.6963 11.476 48.3283 11.8902C47.9425 12.316 47.4314 12.5285 46.7932 12.5285C46.178 12.5285 45.6883 12.3249 45.3229 11.916C44.9585 11.508 44.7762 10.9933 44.7762 10.3729C44.7762 9.72396 44.9638 9.19151 45.3407 8.77817C45.7176 8.36483 46.2243 8.15771 46.8625 8.15771C47.4776 8.15771 47.9719 8.36127 48.3461 8.76928C48.7016 9.16573 48.8803 9.67774 48.8803 10.3035ZM47.9141 10.3338C47.9141 9.94708 47.8305 9.61552 47.6643 9.33907C47.4687 9.00484 47.1905 8.83773 46.8287 8.83773C46.4545 8.83773 46.17 9.00484 45.9745 9.33907C45.8074 9.61552 45.7247 9.95241 45.7247 10.3506C45.7247 10.7373 45.8083 11.0689 45.9745 11.3453C46.1763 11.6796 46.4572 11.8467 46.8198 11.8467C47.1754 11.8467 47.4545 11.6769 47.6554 11.3364C47.8279 11.0547 47.9141 10.7204 47.9141 10.3338Z" fill="white"/>
<path d="M55.8637 8.24304L54.5526 12.4333H53.6992L53.1561 10.6138C53.0183 10.1595 52.9063 9.70796 52.8192 9.25995H52.8023C52.7214 9.7204 52.6094 10.1711 52.4654 10.6138L51.8885 12.4333H51.0254L49.7925 8.24304H50.7498L51.2236 10.2351C51.3383 10.7062 51.4325 11.1551 51.5081 11.58H51.525C51.5943 11.2298 51.709 10.7835 51.8707 10.244L52.4654 8.24393H53.2245L53.7943 10.2013C53.9321 10.6786 54.0441 11.1382 54.1303 11.5809H54.1561C54.2192 11.1498 54.3143 10.6902 54.4406 10.2013L54.949 8.24393H55.8637V8.24304Z" fill="white"/>
<path d="M60.6927 12.4333H59.7612V10.0333C59.7612 9.29372 59.4803 8.92393 58.9167 8.92393C58.6402 8.92393 58.4171 9.02527 58.2438 9.22883C58.0722 9.43239 57.9851 9.67239 57.9851 9.94706V12.4324H57.0535V9.44039C57.0535 9.07238 57.042 8.67326 57.0198 8.24125H57.8385L57.882 8.89638H57.9078C58.0162 8.69282 58.178 8.52481 58.3905 8.39059C58.6429 8.23414 58.9256 8.15503 59.2349 8.15503C59.626 8.15503 59.9514 8.28125 60.2101 8.53459C60.5318 8.84482 60.6927 9.30794 60.6927 9.92306V12.4333Z" fill="white"/>
<path d="M63.2628 12.4333H62.3322V6.32031H63.2628V12.4333Z" fill="white"/>
<path d="M68.7463 10.3035C68.7463 10.948 68.5623 11.476 68.1943 11.8902C67.8085 12.316 67.2965 12.5285 66.6591 12.5285C66.0431 12.5285 65.5533 12.3249 65.1889 11.916C64.8244 11.508 64.6422 10.9933 64.6422 10.3729C64.6422 9.72396 64.8298 9.19151 65.2067 8.77817C65.5836 8.36483 66.0902 8.15771 66.7276 8.15771C67.3436 8.15771 67.8369 8.36127 68.2121 8.76928C68.5676 9.16573 68.7463 9.67774 68.7463 10.3035ZM67.7792 10.3338C67.7792 9.94708 67.6956 9.61552 67.5294 9.33907C67.3347 9.00484 67.0556 8.83773 66.6947 8.83773C66.3196 8.83773 66.0351 9.00484 65.8405 9.33907C65.6733 9.61552 65.5907 9.95241 65.5907 10.3506C65.5907 10.7373 65.6742 11.0689 65.8405 11.3453C66.0422 11.6796 66.3231 11.8467 66.6858 11.8467C67.0414 11.8467 67.3196 11.6769 67.5205 11.3364C67.6938 11.0547 67.7792 10.7204 67.7792 10.3338Z" fill="white"/>
<path d="M73.2557 12.4333H72.4193L72.3499 11.9507H72.3242C72.0379 12.3356 71.6299 12.5285 71.1001 12.5285C70.7046 12.5285 70.3846 12.4013 70.1437 12.1489C69.925 11.9196 69.8157 11.6342 69.8157 11.2955C69.8157 10.7835 70.029 10.3933 70.4584 10.1231C70.8868 9.85286 71.4895 9.72041 72.2655 9.72663V9.64841C72.2655 9.0964 71.9757 8.82084 71.3953 8.82084C70.9819 8.82084 70.6175 8.92484 70.3028 9.13107L70.1135 8.5195C70.5028 8.27861 70.9837 8.15771 71.5508 8.15771C72.6459 8.15771 73.1953 8.7355 73.1953 9.89108V11.4342C73.1953 11.8529 73.2157 12.1862 73.2557 12.4333ZM72.2886 10.9933V10.3471C71.261 10.3293 70.7472 10.6111 70.7472 11.1915C70.7472 11.4102 70.8059 11.5738 70.9259 11.6831C71.0459 11.7924 71.1988 11.8467 71.381 11.8467C71.5855 11.8467 71.7766 11.7818 71.9508 11.6529C72.1259 11.5231 72.2335 11.3587 72.2735 11.1569C72.2833 11.1115 72.2886 11.0564 72.2886 10.9933Z" fill="white"/>
<path d="M78.5489 12.4333H77.7222L77.6787 11.7604H77.6529C77.3889 12.2724 76.9391 12.5284 76.3071 12.5284C75.8022 12.5284 75.3817 12.3302 75.0484 11.9337C74.7151 11.5373 74.5488 11.0226 74.5488 10.3906C74.5488 9.71237 74.7293 9.16303 75.0919 8.74347C75.4431 8.35235 75.8733 8.15679 76.3853 8.15679C76.948 8.15679 77.3418 8.34613 77.5658 8.72569H77.5835V6.32031H78.516V11.3044C78.516 11.7124 78.5267 12.0884 78.5489 12.4333ZM77.5835 10.6662V9.96749C77.5835 9.8466 77.5747 9.74882 77.5578 9.67415C77.5053 9.45015 77.3924 9.2617 77.2209 9.10969C77.0475 8.95769 76.8386 8.88125 76.5977 8.88125C76.2502 8.88125 75.9782 9.01903 75.7782 9.29548C75.58 9.57193 75.4795 9.92482 75.4795 10.3559C75.4795 10.7702 75.5746 11.1062 75.7657 11.3648C75.9675 11.6404 76.2395 11.7782 76.58 11.7782C76.8858 11.7782 77.1302 11.6635 77.316 11.4333C77.4955 11.2208 77.5835 10.9648 77.5835 10.6662Z" fill="white"/>
<path d="M86.5164 10.3035C86.5164 10.948 86.3324 11.476 85.9644 11.8902C85.5786 12.316 85.0684 12.5285 84.4293 12.5285C83.815 12.5285 83.3253 12.3249 82.959 11.916C82.5946 11.508 82.4124 10.9933 82.4124 10.3729C82.4124 9.72396 82.5999 9.19151 82.9768 8.77817C83.3537 8.36483 83.8604 8.15771 84.4995 8.15771C85.1137 8.15771 85.6089 8.36127 85.9822 8.76928C86.3378 9.16573 86.5164 9.67774 86.5164 10.3035ZM85.5511 10.3338C85.5511 9.94708 85.4675 9.61552 85.3013 9.33907C85.1048 9.00484 84.8275 8.83773 84.4648 8.83773C84.0915 8.83773 83.807 9.00484 83.6106 9.33907C83.4435 9.61552 83.3608 9.95241 83.3608 10.3506C83.3608 10.7373 83.4444 11.0689 83.6106 11.3453C83.8124 11.6796 84.0933 11.8467 84.4559 11.8467C84.8115 11.8467 85.0915 11.6769 85.2924 11.3364C85.464 11.0547 85.5511 10.7204 85.5511 10.3338Z" fill="white"/>
<path d="M91.5249 12.4333H90.5942V10.0333C90.5942 9.29372 90.3133 8.92393 89.7488 8.92393C89.4724 8.92393 89.2493 9.02527 89.0768 9.22883C88.9044 9.43239 88.8181 9.67239 88.8181 9.94706V12.4324H87.8857V9.44039C87.8857 9.07238 87.875 8.67326 87.8528 8.24125H88.6706L88.7141 8.89638H88.7399C88.8492 8.69282 89.011 8.52481 89.2226 8.39059C89.4759 8.23414 89.7577 8.15503 90.0679 8.15503C90.4582 8.15503 90.7835 8.28125 91.0422 8.53459C91.3648 8.84482 91.5249 9.30794 91.5249 9.92306V12.4333Z" fill="white"/>
<path d="M97.7936 8.94083H96.7678V10.9764C96.7678 11.4938 96.95 11.7524 97.3109 11.7524C97.4781 11.7524 97.6167 11.7382 97.7261 11.7089L97.7501 12.4156C97.5661 12.4849 97.3243 12.5196 97.0265 12.5196C96.6585 12.5196 96.3723 12.4076 96.1651 12.1836C95.9571 11.9595 95.854 11.5827 95.854 11.0538V8.94083H95.2416V8.24304H95.854V7.47502L96.7669 7.19946V8.24215H97.7927V8.94083H97.7936Z" fill="white"/>
<path d="M102.726 12.4333H101.793V10.051C101.793 9.29992 101.512 8.92391 100.95 8.92391C100.518 8.92391 100.223 9.1417 100.061 9.57726C100.033 9.66882 100.017 9.78082 100.017 9.91238V12.4324H99.0867V6.32031H100.017V8.84569H100.035C100.328 8.38613 100.749 8.15679 101.294 8.15679C101.68 8.15679 101.999 8.28301 102.252 8.53635C102.568 8.85191 102.726 9.32125 102.726 9.94171V12.4333Z" fill="white"/>
<path d="M107.813 10.1399C107.813 10.307 107.801 10.4475 107.779 10.5621H104.985C104.997 10.9764 105.131 11.2919 105.389 11.5106C105.626 11.7062 105.931 11.8039 106.304 11.8039C106.717 11.8039 107.094 11.7382 107.434 11.6057L107.58 12.2528C107.182 12.4253 106.715 12.5115 106.173 12.5115C105.524 12.5115 105.013 12.3204 104.643 11.9382C104.272 11.5559 104.088 11.043 104.088 10.3995C104.088 9.76746 104.259 9.24123 104.605 8.82167C104.966 8.37366 105.454 8.14966 106.07 8.14966C106.673 8.14966 107.131 8.37366 107.44 8.82167C107.69 9.17723 107.813 9.61724 107.813 10.1399ZM106.924 9.89902C106.931 9.62257 106.87 9.38435 106.744 9.18345C106.582 8.92478 106.336 8.795 106.003 8.795C105.699 8.795 105.451 8.92123 105.261 9.17456C105.107 9.37635 105.015 9.61724 104.985 9.89902H106.924Z" fill="white"/>
</svg>
