<svg width="142" height="30" viewBox="0 0 142 30" fill="none" xmlns="http://www.w3.org/2000/svg">
<rect x="0.927734" width="30" height="30" rx="15" fill="#1E1B1C"/>
<rect x="20.9277" y="15.8323" width="4.16667" height="4.16667" transform="rotate(90 20.9277 15.8323)" fill="white"/>
<path fill-rule="evenodd" clip-rule="evenodd" d="M22.1777 12.4988V8.74876L9.67773 8.74876L9.67773 12.4988H9.6779V21.2488H13.4279V12.4988L22.1777 12.4988Z" fill="white"/>
<path d="M40.6341 22H38.0819V10.6696H46.3236V13.0105H40.6341V14.9612H45.6572V17.3183H40.6341V22ZM58.3013 22H55.2777L52.628 17.4971H52.0916H51.8477V22H49.3118V10.6696H53.2945C55.9171 10.6696 57.2284 11.7859 57.2284 14.0184C57.2284 14.8095 57.0605 15.4705 56.7245 16.0016C56.3885 16.5326 55.9009 16.9282 55.2615 17.1883L58.3013 22ZM51.8477 13.0105V15.1563H53.0344C53.5654 15.1563 53.9718 15.0912 54.2536 14.9612C54.5354 14.8311 54.6763 14.5277 54.6763 14.0509C54.6763 13.7257 54.6004 13.4873 54.4487 13.3356C54.2969 13.1839 54.1127 13.0918 53.896 13.0593C53.6792 13.0267 53.392 13.0105 53.0344 13.0105H51.8477ZM65.5738 22.2926C64.4901 22.2926 63.5256 22.0433 62.6803 21.5448C61.8458 21.0463 61.1955 20.3473 60.7295 19.4478C60.2635 18.5483 60.0305 17.5134 60.0305 16.3429C60.0305 15.1617 60.2635 14.1213 60.7295 13.2218C61.1955 12.3223 61.8458 11.6233 62.6803 11.1248C63.5256 10.6263 64.4901 10.377 65.5738 10.377C66.6684 10.377 67.6329 10.6263 68.4674 11.1248C69.3127 11.6125 69.9683 12.3115 70.4343 13.2218C70.9003 14.1213 71.1333 15.1617 71.1333 16.3429C71.1333 17.5242 70.9003 18.5646 70.4343 19.4641C69.9683 20.3636 69.3127 21.0626 68.4674 21.5611C67.622 22.0488 66.6575 22.2926 65.5738 22.2926ZM65.5738 19.8542C66.495 19.8542 67.2211 19.5399 67.7521 18.9114C68.294 18.2828 68.5649 17.4267 68.5649 16.3429C68.5649 15.2592 68.294 14.4031 67.7521 13.7745C67.2211 13.1351 66.495 12.8154 65.5738 12.8154C64.6526 12.8154 63.9211 13.1297 63.3793 13.7583C62.8482 14.3868 62.5827 15.2484 62.5827 16.3429C62.5827 17.4375 62.8482 18.2991 63.3793 18.9276C63.9211 19.5454 64.6526 19.8542 65.5738 19.8542ZM81.1243 17.5784V10.6696H83.6765V22H81.0593L76.8003 15.0587V22H74.2481V10.6696H76.849L81.1243 17.5784ZM92.2707 22H89.686V13.0105H86.3698V10.6696H95.5706V13.0105H92.2707V22ZM107.253 22H104.23L101.58 17.4971H101.043H100.8V22H98.2636V10.6696H102.246C104.869 10.6696 106.18 11.7859 106.18 14.0184C106.18 14.8095 106.012 15.4705 105.676 16.0016C105.34 16.5326 104.853 16.9282 104.213 17.1883L107.253 22ZM100.8 13.0105V15.1563H101.986C102.517 15.1563 102.924 15.0912 103.205 14.9612C103.487 14.8311 103.628 14.5277 103.628 14.0509C103.628 13.7257 103.552 13.4873 103.401 13.3356C103.249 13.1839 103.065 13.0918 102.848 13.0593C102.631 13.0267 102.344 13.0105 101.986 13.0105H100.8ZM114.526 22.2926C113.442 22.2926 112.477 22.0433 111.632 21.5448C110.798 21.0463 110.147 20.3473 109.681 19.4478C109.215 18.5483 108.982 17.5134 108.982 16.3429C108.982 15.1617 109.215 14.1213 109.681 13.2218C110.147 12.3223 110.798 11.6233 111.632 11.1248C112.477 10.6263 113.442 10.377 114.526 10.377C115.62 10.377 116.585 10.6263 117.419 11.1248C118.264 11.6125 118.92 12.3115 119.386 13.2218C119.852 14.1213 120.085 15.1617 120.085 16.3429C120.085 17.5242 119.852 18.5646 119.386 19.4641C118.92 20.3636 118.264 21.0626 117.419 21.5611C116.574 22.0488 115.609 22.2926 114.526 22.2926ZM114.526 19.8542C115.447 19.8542 116.173 19.5399 116.704 18.9114C117.246 18.2828 117.517 17.4267 117.517 16.3429C117.517 15.2592 117.246 14.4031 116.704 13.7745C116.173 13.1351 115.447 12.8154 114.526 12.8154C113.604 12.8154 112.873 13.1297 112.331 13.7583C111.8 14.3868 111.535 15.2484 111.535 16.3429C111.535 17.4375 111.8 18.2991 112.331 18.9276C112.873 19.5454 113.604 19.8542 114.526 19.8542ZM127.468 22H125.013L121.551 10.6696H124.217L126.395 18.0661L128.59 11.3524H130.752L132.979 18.0661L135.141 10.6696H137.823L134.344 22H131.873L129.679 15.4001L127.468 22Z" fill="#1E1B1C"/>
</svg>
