<svg width="142" height="30" viewBox="0 0 142 30" fill="none" xmlns="http://www.w3.org/2000/svg">
<path fill-rule="evenodd" clip-rule="evenodd" d="M15.9277 0C7.64346 0 0.927734 6.71573 0.927734 15C0.927734 23.2843 7.64346 30 15.9277 30C24.212 30 30.9277 23.2843 30.9277 15C30.9277 6.71573 24.212 0 15.9277 0ZM22.1777 12.4988V8.74876L9.67773 8.74876V12.4988H9.6779V21.2488H13.4279V12.4988L22.1777 12.4988ZM20.9277 19.9989V15.8323H16.7611V19.9989H20.9277Z" fill="white"/>
<path d="M40.6341 22V17.3183H45.6572V14.9612H40.6341V13.0105H46.3236V10.6696H38.0819V22H40.6341ZM55.2615 17.1883C56.5294 16.6843 57.2284 15.6277 57.2284 14.0184C57.2284 12.0026 56.1555 10.6696 53.2945 10.6696H49.3118V22H51.8477V17.4971H52.0916H52.628L55.2777 22H58.3013L55.2615 17.1883ZM53.0344 13.0105C53.8309 13.0105 54.6763 13.0105 54.6763 14.0509C54.6763 15.1075 53.8472 15.1563 53.0344 15.1563H51.8477V13.0105H53.0344ZM65.5738 22.2926C68.8575 22.2926 71.1333 19.9192 71.1333 16.3429C71.1333 12.7504 68.89 10.377 65.5738 10.377C62.2901 10.377 60.0305 12.7666 60.0305 16.3429C60.0305 19.903 62.2901 22.2926 65.5738 22.2926ZM65.5738 19.8542C63.7531 19.8542 62.5827 18.5375 62.5827 16.3429C62.5827 14.1321 63.7531 12.8154 65.5738 12.8154C67.4107 12.8154 68.5649 14.1647 68.5649 16.3429C68.5649 18.505 67.4107 19.8542 65.5738 19.8542ZM81.1243 17.5784L76.849 10.6696H74.2481V22H76.8003V15.0587L81.0593 22H83.6765V10.6696H81.1243V17.5784ZM92.2707 22V13.0105H95.5706V10.6696H86.3698V13.0105H89.686V22H92.2707ZM104.213 17.1883C105.481 16.6843 106.18 15.6277 106.18 14.0184C106.18 12.0026 105.107 10.6696 102.246 10.6696H98.2636V22H100.8V17.4971H101.043H101.58L104.23 22H107.253L104.213 17.1883ZM101.986 13.0105C102.783 13.0105 103.628 13.0105 103.628 14.0509C103.628 15.1075 102.799 15.1563 101.986 15.1563H100.8V13.0105H101.986ZM114.526 22.2926C117.809 22.2926 120.085 19.9192 120.085 16.3429C120.085 12.7504 117.842 10.377 114.526 10.377C111.242 10.377 108.982 12.7666 108.982 16.3429C108.982 19.903 111.242 22.2926 114.526 22.2926ZM114.526 19.8542C112.705 19.8542 111.535 18.5375 111.535 16.3429C111.535 14.1321 112.705 12.8154 114.526 12.8154C116.363 12.8154 117.517 14.1647 117.517 16.3429C117.517 18.505 116.363 19.8542 114.526 19.8542ZM127.468 22L129.679 15.4001L131.873 22H134.344L137.823 10.6696H135.141L132.979 18.0661L130.752 11.3524H128.59L126.395 18.0661L124.217 10.6696H121.551L125.013 22H127.468Z" fill="white"/>
</svg>
