<svg width="122" height="37" viewBox="0 0 122 37" fill="none" xmlns="http://www.w3.org/2000/svg">
<path fill-rule="evenodd" clip-rule="evenodd" d="M116.987 36.1547H4.75474C2.27952 36.1547 0.263672 34.1389 0.263672 31.6837V4.85772C0.263672 2.39365 2.27952 0.386719 4.75474 0.386719H116.987C119.46 0.386719 121.478 2.39365 121.478 4.85772V31.6837C121.478 34.1389 119.46 36.1547 116.987 36.1547Z" fill="black"/>
<path fill-rule="evenodd" clip-rule="evenodd" d="M116.987 1.10252C119.063 1.10252 120.762 2.79058 120.762 4.85772V31.6837C120.762 33.7509 119.074 35.4389 116.987 35.4389H4.75474C2.67868 35.4389 0.979478 33.7509 0.979478 31.6837V4.85772C0.979478 2.79058 2.66753 1.10252 4.75474 1.10252H116.987ZM116.987 0.386719H4.75474C2.27952 0.386719 0.263672 2.40257 0.263672 4.85772V31.6837C0.263672 34.1478 2.27952 36.1547 4.75474 36.1547H116.987C119.46 36.1547 121.478 34.1478 121.478 31.6837V4.85772C121.478 2.40257 119.46 0.386719 116.987 0.386719Z" fill="#A6A6A6"/>
<path d="M64.1203 12.2187C63.3108 12.2187 62.6285 11.9355 62.0888 11.378C61.5536 10.8362 61.2548 10.0891 61.2682 9.32651C61.2682 8.51258 61.5447 7.82354 62.0888 7.27721C62.6262 6.71972 63.3086 6.43652 64.1181 6.43652C64.9186 6.43652 65.601 6.71972 66.1495 7.27721C66.6936 7.84138 66.9701 8.53042 66.9701 9.32651C66.9612 10.1427 66.6847 10.8317 66.1495 11.3758C65.6121 11.9377 64.9298 12.2187 64.1203 12.2187ZM40.0349 12.2187C39.2432 12.2187 38.5564 11.94 37.9945 11.3892C37.437 10.8406 37.1538 10.1471 37.1538 9.32874C37.1538 8.51035 37.437 7.81685 37.9945 7.26829C38.5453 6.71749 39.2321 6.43875 40.0349 6.43875C40.4273 6.43875 40.8087 6.5168 41.1744 6.67513C41.5334 6.82899 41.8255 7.0386 42.0418 7.29504L42.0953 7.35971L41.491 7.95287L41.4286 7.87928C41.0874 7.47344 40.6303 7.27498 40.026 7.27498C39.4863 7.27498 39.0158 7.46675 38.6278 7.84584C38.2376 8.22715 38.0391 8.72666 38.0391 9.33097C38.0391 9.93528 38.2376 10.4348 38.6278 10.8161C39.0158 11.1952 39.4863 11.387 40.026 11.387C40.6013 11.387 41.0852 11.1952 41.462 10.8161C41.685 10.5931 41.8233 10.2809 41.8723 9.88622H39.9345V9.05223H42.7041L42.7152 9.12804C42.7353 9.26853 42.7554 9.41347 42.7554 9.54727C42.7554 10.3166 42.5235 10.9387 42.0641 11.3981C41.5423 11.9422 40.8599 12.2187 40.0349 12.2187ZM72.0588 12.1005H71.2048L68.5891 7.91496L68.6114 8.66868V12.0983H67.7573V6.55694H68.7318L68.7585 6.59931L71.2181 10.5418L71.1958 9.79033V6.55694H72.0588V12.1005ZM57.7026 12.1005H56.8374V7.39093H55.3366V6.55694H59.2011V7.39093H57.7003V12.1005H57.7026ZM54.632 12.1005H53.769V6.55694H54.632V12.1005ZM49.7819 12.1005H48.9189V7.39093H47.4182V6.55694H51.2826V7.39093H49.7819V12.1005ZM46.8718 12.0916H43.5626V6.55694H46.8718V7.39093H44.4278V8.91174H46.6332V9.73681H44.4278V11.2576H46.8718V12.0916ZM62.7221 10.8049C63.1079 11.1907 63.5762 11.3847 64.1203 11.3847C64.68 11.3847 65.1371 11.1952 65.5185 10.8049C65.8975 10.4259 66.0893 9.92859 66.0893 9.32874C66.0893 8.72889 65.8975 8.22938 65.5207 7.85253C65.1349 7.46675 64.6644 7.27275 64.1225 7.27275C63.5628 7.27275 63.1057 7.46229 62.7266 7.85253C62.3475 8.23161 62.1557 8.72889 62.1557 9.32874C62.1557 9.92859 62.3453 10.4281 62.7221 10.8049Z" fill="white"/>
<path fill-rule="evenodd" clip-rule="evenodd" d="M61.1874 19.8405C59.0801 19.8405 57.372 21.4394 57.372 23.6448C57.372 25.8301 59.0912 27.449 61.1874 27.449C63.2947 27.449 65.0028 25.839 65.0028 23.6448C65.0028 21.4394 63.2947 19.8405 61.1874 19.8405ZM61.1874 25.9416C60.0345 25.9416 59.0422 24.9872 59.0422 23.6359C59.0422 22.2645 60.0367 21.3301 61.1874 21.3301C62.3402 21.3301 63.3326 22.2645 63.3326 23.6359C63.3348 24.9961 62.3402 25.9416 61.1874 25.9416ZM52.8631 19.8405C50.7558 19.8405 49.0477 21.4394 49.0477 23.6448C49.0477 25.8301 50.7669 27.449 52.8631 27.449C54.9703 27.449 56.6785 25.839 56.6785 23.6448C56.6785 21.4394 54.9681 19.8405 52.8631 19.8405ZM52.8631 25.9416C51.7102 25.9416 50.7179 24.9872 50.7179 23.6359C50.7179 22.2645 51.7124 21.3301 52.8631 21.3301C54.0159 21.3301 55.0082 22.2645 55.0082 23.6359C55.0082 24.9961 54.0159 25.9416 52.8631 25.9416ZM42.9577 21.0023V22.6123H46.8222C46.704 23.5155 46.4052 24.1822 45.9481 24.6393C45.3817 25.2057 44.5075 25.8212 42.9667 25.8212C40.5918 25.8212 38.7343 23.9035 38.7343 21.5286C38.7343 19.1537 40.5918 17.236 42.9667 17.236C44.2489 17.236 45.1832 17.7422 45.8767 18.3889L47.0184 17.2471C46.0551 16.324 44.7729 15.6171 42.9756 15.6171C39.7177 15.6171 36.9838 18.2707 36.9838 21.5197C36.9838 24.7776 39.7154 27.4223 42.9756 27.4223C44.735 27.4223 46.0551 26.847 47.0987 25.7632C48.1624 24.6995 48.4991 23.1988 48.4991 21.988C48.4991 21.6111 48.4701 21.2722 48.4099 20.9845H42.9555C42.9577 20.9823 42.9577 21.0023 42.9577 21.0023ZM83.4732 22.2556C83.1544 21.4015 82.191 19.8316 80.2153 19.8316C78.2574 19.8316 76.6296 21.3725 76.6296 23.6359C76.6296 25.7721 78.2396 27.4401 80.4049 27.4401C82.1442 27.4401 83.1566 26.3765 83.5736 25.7521L82.2825 24.8869C81.8543 25.5224 81.2589 25.9394 80.4138 25.9394C79.5597 25.9394 78.9621 25.5514 78.5652 24.7865L83.6516 22.6792C83.6516 22.6815 83.4732 22.2556 83.4732 22.2556ZM78.2864 23.5266C78.2463 22.0571 79.4282 21.3101 80.2733 21.3101C80.94 21.3101 81.4953 21.6379 81.6848 22.1151L78.2864 23.5266ZM74.1544 27.2127H75.8246V16.0363H74.1544V27.2127ZM71.4116 20.6857H71.3514C70.9745 20.2375 70.2587 19.8316 69.3444 19.8316C67.4468 19.8316 65.6985 21.5018 65.6985 23.647C65.6985 25.7833 67.4378 27.4334 69.3444 27.4334C70.2476 27.4334 70.9745 27.0254 71.3514 26.5682H71.4116V27.1146C71.4116 28.5662 70.6356 29.3489 69.3846 29.3489C68.361 29.3489 67.7255 28.6131 67.4668 27.9976L66.0152 28.6041C66.4322 29.6076 67.5449 30.8497 69.3823 30.8497C71.3402 30.8497 72.9993 29.6968 72.9993 26.8849V20.0591H71.4205V20.6857C71.4227 20.6857 71.4116 20.6857 71.4116 20.6857ZM69.4938 25.9416C68.341 25.9416 67.3776 24.9783 67.3776 23.647C67.3776 22.3046 68.341 21.3324 69.4938 21.3324C70.6356 21.3324 71.5208 22.3158 71.5208 23.647C71.532 24.9783 70.6378 25.9416 69.4938 25.9416ZM91.2936 16.0363H87.2998V27.2127H88.97V22.9803H91.2958C93.1444 22.9803 94.9618 21.6401 94.9618 19.5127C94.9618 17.3854 93.1511 16.0363 91.2936 16.0363ZM91.3426 21.4193H88.9678V17.5839H91.3426C92.5936 17.5839 93.3005 18.6163 93.3005 19.5016C93.3005 20.378 92.5847 21.4193 91.3426 21.4193ZM101.656 19.8205C100.443 19.8205 99.192 20.3579 98.6746 21.5286L100.155 22.1441C100.474 21.5286 101.058 21.319 101.676 21.319C102.541 21.319 103.415 21.8363 103.436 22.7595V22.8777C103.137 22.7082 102.481 22.4496 101.696 22.4496C100.097 22.4496 98.4762 23.3237 98.4762 24.9627C98.4762 26.4634 99.7874 27.4267 101.248 27.4267C102.37 27.4267 102.987 26.9206 103.373 26.3341H103.433V27.1993H105.043V22.9178C105.043 20.9243 103.563 19.8205 101.656 19.8205ZM101.446 25.9416C100.9 25.9416 100.135 25.674 100.135 24.9872C100.135 24.122 101.09 23.7942 101.904 23.7942C102.639 23.7942 102.987 23.9525 103.424 24.1711C103.304 25.1745 102.457 25.9327 101.446 25.9416ZM110.917 20.0591L108.999 24.9069H108.939L106.952 20.0591H105.155L108.136 26.8358L106.437 30.6022H108.176L112.763 20.0591H110.917ZM95.8828 27.2127H97.553V16.0363H95.8828V27.2127Z" fill="white"/>
<path fill-rule="evenodd" clip-rule="evenodd" d="M9.59338 7.12332C9.33471 7.40206 9.1853 7.82797 9.1853 8.38546V28.1582C9.1853 28.7157 9.33471 29.1416 9.6023 29.4092L9.67143 29.4694L20.7497 18.3911V18.1436L9.66251 7.06311L9.59338 7.12332Z" fill="url(#paint0_linear)"/>
<path fill-rule="evenodd" clip-rule="evenodd" d="M24.4361 22.0951L20.7411 18.4001V18.1414L24.4361 14.4464L24.5164 14.4955L28.887 16.9796C30.138 17.6843 30.138 18.8483 28.887 19.5619L24.5164 22.046L24.4361 22.0951Z" fill="url(#paint1_linear)"/>
<path fill-rule="evenodd" clip-rule="evenodd" d="M24.5159 22.046L20.7407 18.2708L9.59326 29.4181C10.0013 29.8552 10.6859 29.9043 11.4508 29.4784L24.5159 22.046Z" fill="url(#paint2_linear)"/>
<path fill-rule="evenodd" clip-rule="evenodd" d="M24.5159 14.4955L11.4508 7.07427C10.6859 6.6372 9.99911 6.69741 9.59326 7.13448L20.7407 18.2707L24.5159 14.4955Z" fill="url(#paint3_linear)"/>
<path opacity="0.2" fill-rule="evenodd" clip-rule="evenodd" d="M24.4365 21.9657L11.4606 29.3378C10.7358 29.7548 10.0892 29.7258 9.67216 29.3467L9.60303 29.4159L9.67216 29.4761C10.0892 29.8529 10.7358 29.8842 11.4606 29.4672L24.5257 22.046L24.4365 21.9657Z" fill="black"/>
<path opacity="0.12" fill-rule="evenodd" clip-rule="evenodd" d="M28.8868 19.4325L24.4247 21.9657L24.505 22.046L28.8756 19.5619C29.5022 19.2051 29.81 18.7368 29.81 18.2708C29.772 18.6989 29.4532 19.1047 28.8868 19.4325Z" fill="black"/>
<path opacity="0.25" fill-rule="evenodd" clip-rule="evenodd" d="M11.4509 7.20359L28.8867 17.1089C29.4531 17.4278 29.772 17.8448 29.821 18.2707C29.821 17.8047 29.5133 17.3364 28.8867 16.9796L11.4509 7.07426C10.1999 6.35845 9.1853 6.95607 9.1853 8.38545V8.51479C9.1853 7.08318 10.1999 6.49671 11.4509 7.20359Z" fill="white"/>
<defs>
<linearGradient id="paint0_linear" x1="19.756" y1="8.17213" x2="2.01052" y2="12.9004" gradientUnits="userSpaceOnUse">
<stop stop-color="#00A0FF"/>
<stop offset="0.00657" stop-color="#00A1FF"/>
<stop offset="0.2601" stop-color="#00BEFF"/>
<stop offset="0.5122" stop-color="#00D2FF"/>
<stop offset="0.7604" stop-color="#00DFFF"/>
<stop offset="1" stop-color="#00E3FF"/>
</linearGradient>
<linearGradient id="paint1_linear" x1="30.5184" y1="18.2708" x2="8.88157" y2="18.2708" gradientUnits="userSpaceOnUse">
<stop stop-color="#FFE000"/>
<stop offset="0.4087" stop-color="#FFBD00"/>
<stop offset="0.7754" stop-color="#FFA500"/>
<stop offset="1" stop-color="#FF9C00"/>
</linearGradient>
<linearGradient id="paint2_linear" x1="22.4631" y1="20.325" x2="8.2171" y2="44.3022" gradientUnits="userSpaceOnUse">
<stop stop-color="#FF3A44"/>
<stop offset="1" stop-color="#C31162"/>
</linearGradient>
<linearGradient id="paint3_linear" x1="6.78623" y1="0.5466" x2="13.1419" y2="11.2552" gradientUnits="userSpaceOnUse">
<stop stop-color="#32A071"/>
<stop offset="0.0685" stop-color="#2DA771"/>
<stop offset="0.4762" stop-color="#15CF74"/>
<stop offset="0.8009" stop-color="#06E775"/>
<stop offset="1" stop-color="#00F076"/>
</linearGradient>
</defs>
</svg>
