<svg height='100px' width='100px'  fill="#FEB330" xmlns="http://www.w3.org/2000/svg" xmlns:xlink="http://www.w3.org/1999/xlink" version="1.1" x="0px" y="0px" viewBox="0 0 66 66" enable-background="new 0 0 66 66" xml:space="preserve"><g><g><path d="M33,28.3c5.1,0,9.2-4.1,9.2-9.2c0-5.1-4.1-9.2-9.2-9.2c-5.1,0-9.2,4.1-9.2,9.2C23.8,24.2,27.9,28.3,33,28.3z M28.8,13.9    c0-0.4,0.2-0.7,0.5-0.9c0.3-0.2,0.7-0.2,1,0l8.6,5.2c0.3,0.2,0.5,0.5,0.5,0.9c0,0.4-0.2,0.7-0.5,0.9l-8.6,5.2    c-0.3,0.2-0.7,0.2-1,0c-0.3-0.2-0.5-0.5-0.5-0.9V13.9z"></path></g><g><polygon points="30.8,15.7 30.8,22.5 36.4,19.1   "></polygon></g><g><circle cx="31.7" cy="35.6" r="1.2"></circle></g><g><path d="M61.3,3.7H33.8V2c0-0.6-0.4-1-1-1c-0.6,0-1,0.4-1,1v1.7H4.7c-0.5,0-1,0.5-1,1v37.3c0,0.5,0.5,1,1,1h26.1L15.4,63.4    c-0.3,0.4-0.2,1.1,0.2,1.4c0.4,0.3,1.1,0.2,1.4-0.2l14.9-19.7l0,18.9c0,0.6,0.4,1,1,1c0.6,0,1-0.4,1-1V44.9l14.9,19.7    c0.2,0.3,0.5,0.4,0.8,0.4c0.2,0,0.4-0.1,0.6-0.2c0.4-0.3,0.5-1,0.2-1.4L34.8,42.9h26.5c0.5,0,1-0.5,1-1V4.7    C62.3,4.1,61.9,3.7,61.3,3.7z M33,7.9c6.2,0,11.2,5,11.2,11.2c0,6.2-5,11.2-11.2,11.2c-6.2,0-11.2-5-11.2-11.2    C21.8,12.9,26.8,7.9,33,7.9z M13.5,37.2c0,0.6-0.4,1-1,1c-0.6,0-1-0.4-1-1v-3.4c0-0.6,0.4-1,1-1c0.6,0,1,0.4,1,1V37.2z M16.7,37.2    c0,0.6-0.4,1-1,1c-0.6,0-1-0.4-1-1v-3.4c0-0.6,0.4-1,1-1c0.6,0,1,0.4,1,1V37.2z M53.5,36.5l-18.9,0c-0.4,1.3-1.6,2.2-3,2.2    c-1.4,0-2.6-0.9-3-2.2h-6.3c-0.6,0-1-0.4-1-1c0-0.6,0.4-1,1-1h6.3c0.4-1.3,1.6-2.2,3-2.2c1.4,0,2.6,0.9,3,2.2l18.9,0h0    c0.6,0,1,0.4,1,1C54.5,36.1,54.1,36.5,53.5,36.5z"></path></g></g></svg>