<svg width="39" height="21" viewBox="0 0 39 21" fill="none" xmlns="http://www.w3.org/2000/svg">
<path d="M36.1994 17.4573C32.9421 21.0904 27.5549 21.8421 23.4206 19.2947C22.5437 18.7518 21.7085 18.0002 20.9568 17.0814L19.5369 15.3275L15.9038 10.7756L13.6904 8.06115C13.3564 7.64355 12.9805 7.30945 12.6464 7.10065C10.8507 6.01488 8.5539 6.34898 7.13403 7.89412C5.67243 9.52275 5.67243 12.0284 7.13403 13.6571C7.96924 14.5758 9.13854 15.0769 10.3496 15.0769C11.1431 15.0769 11.9365 14.8264 12.6464 14.4505C13.0223 14.2417 13.3564 13.9076 13.6904 13.49L14.285 12.7609L17.9565 17.2637C17.2463 18.097 16.4693 18.7895 15.6532 19.2947C11.5189 21.8421 6.1318 21.0904 2.87449 17.4573C-0.508115 13.6571 -0.508115 7.76882 2.87449 4.01038C4.83723 1.79707 7.5934 0.66957 10.3496 0.66957C12.1871 0.66957 13.9827 1.17067 15.6532 2.21471C16.5302 2.75758 17.3654 3.50924 18.1171 4.42801L19.5369 6.18195L23.2118 10.7338L25.4252 13.4483C25.7592 13.8659 26.1351 14.2 26.4692 14.4088C28.2649 15.4945 30.5617 15.1604 31.9816 13.6153C33.4432 11.9867 33.4432 9.48102 31.9816 7.85235C30.5617 6.30722 28.2649 5.97315 26.4692 7.05892C26.0933 7.26772 25.7592 7.60179 25.4252 8.01939L24.8083 8.7759L21.0982 4.22572C21.8134 3.38242 22.5972 2.68266 23.4206 2.17294C27.5549 -0.374465 32.9421 0.377238 36.1994 4.01038C39.582 7.81059 39.582 13.6988 36.1994 17.4573Z" fill="#FEB330"/>
<path d="M23.4205 19.2947C27.5548 21.8421 32.9419 21.0904 36.1992 17.4573C39.5818 13.6988 39.5818 7.81059 36.1992 4.01038C32.9419 0.377239 27.5548 -0.374465 23.4205 2.17294C22.5971 2.68266 21.8132 3.38242 21.098 4.22572L24.8082 8.7759L25.425 8.01939C25.7591 7.60179 26.0932 7.26772 26.469 7.05892C28.2647 5.97315 30.5616 6.30722 31.9814 7.85235C33.443 9.48102 33.443 11.9867 31.9814 13.6153C30.5615 15.1604 28.2647 15.4945 26.469 14.4088C26.1349 14.2 25.7591 13.8659 25.425 13.4483L23.2117 10.7338L21.3742 8.45789L17.7202 13.0515L19.5368 15.3275L20.9566 17.0814C21.7083 18.0002 22.5435 18.7518 23.4205 19.2947Z" fill="black"/>
</svg>
