<?xml version="1.0" encoding="utf-8"?>
<!-- Generator: Adobe Illustrator 25.2.1, SVG Export Plug-In . SVG Version: 6.00 Build 0)  -->
<svg version="1.1" xmlns="http://www.w3.org/2000/svg" xmlns:xlink="http://www.w3.org/1999/xlink" x="0px" y="0px"
	 viewBox="0 0 100 125" style="enable-background:new 0 0 100 125;" xml:space="preserve">
<style type="text/css">
	.st0{fill:#FFB330;}
</style>
<g id="Layer_2">
</g>
<g id="Layer_1">
	<g>
		<path class="st0" d="M37.6,84.7C22,84.7,9.4,72,9.4,56.5c0-15.6,12.7-28.2,28.2-28.2c4.3,0,8.4,1,12.1,2.7l5.1-5.1
			c-5.1-2.9-10.9-4.5-17.2-4.5c-19.4,0-35.1,15.8-35.1,35.1c0,19.4,15.7,35.1,35.1,35.1c19.2,0,34.9-15.5,35.1-34.7l-7,1.9
			C64.6,73.3,52.4,84.7,37.6,84.7z"/>
		<path class="st0" d="M37.6,41.5c0.5,0,1,0,1.5,0.1l5.7-5.7c-2.2-0.8-4.6-1.3-7.2-1.3c-12.1,0-21.9,9.8-21.9,21.9
			s9.8,21.9,21.9,21.9c10.7,0,19.6-7.7,21.5-17.8l-7.8,2.1c-2.3,5.2-7.6,8.8-13.6,8.8c-8.3,0-15-6.7-15-15
			C22.6,48.2,29.3,41.5,37.6,41.5z"/>
		<path class="st0" d="M96.2,45.8l-5.9-3.4l3.4-5.9c0.5-0.9,0.4-2-0.2-2.9c-0.6-0.8-1.7-1.2-2.7-0.9l-9.7,2.6
			c-0.7,0.2-1.2,0.6-1.6,1.2L76,42.6l-26.9,7.2l19.7-19.7H76c0.7,0,1.3-0.3,1.8-0.8l7.1-7.1c0.7-0.7,1-1.8,0.6-2.8s-1.3-1.6-2.4-1.6
			h-6.8V11c0-1-0.6-2-1.6-2.4s-2.1-0.2-2.8,0.6l-7.1,7.1c-0.5,0.5-0.8,1.1-0.8,1.8v7.1L40.8,48.5c-1-0.4-2-0.6-3.2-0.6
			c-4.8,0-8.6,3.9-8.6,8.6s3.9,8.6,8.6,8.6c4.3,0,7.9-3.2,8.5-7.4l31.7-8.5l6.2,3.6c0.6,0.3,1.3,0.4,2,0.3l9.7-2.6
			c1-0.3,1.8-1.1,1.9-2.2C97.6,47.3,97.1,46.3,96.2,45.8z"/>
	</g>
</g>
</svg>
