<svg height='100px' width='100px'  fill="#FEB330" xmlns:dc="http://purl.org/dc/elements/1.1/" xmlns:cc="http://creativecommons.org/ns#" xmlns:rdf="http://www.w3.org/1999/02/22-rdf-syntax-ns#" xmlns:svg="http://www.w3.org/2000/svg" xmlns="http://www.w3.org/2000/svg" xmlns:sodipodi="http://sodipodi.sourceforge.net/DTD/sodipodi-0.dtd" xmlns:inkscape="http://www.inkscape.org/namespaces/inkscape" version="1.1" x="0px" y="0px" viewBox="0 0 99 99"><g transform="translate(0,-953.36218)"><g transform="matrix(3.7320709,-0.01085281,0.01085281,3.7320709,-8208.7976,-3011.3128)"><path style="" d="m 2217.1124,1070.2266 -14.3325,-4e-4 c 0,0.5143 0.033,1.0738 0.043,1.6632 l -0.5005,0 -4.3112,6e-4 c -0.033,4.5888 1.6873,9.8986 7.1621,9.9815 0.8612,1.418 2.0423,2.71 3.6682,3.7455 l 0,3.1593 -4.2994,0 0,0.7932 -1.7871,0 -1.2471,4.2767 16.7455,0 -1.1217,-4.2776 -1.7859,0 0,-0.7945 -4.2994,0 0,-3.1785 c 1.6075,-1.0238 2.7721,-2.2944 3.622,-3.7409 5.1768,-0.3151 6.8037,-5.4855 6.7862,-9.9677 l -4.3112,-7e-4 -0.1241,0 c 0.033,-0.5497 0.064,-1.1025 0.09,-1.6567 z m 2.7825,3.0892 c 0,3.107 -1.0778,6.6776 -4.5076,7.1118 0.9179,-2.1429 1.3124,-4.5773 1.5287,-7.1118 l 2.9789,0 z m -17.2303,0 0.228,0 c 0.1408,2.2537 0.4951,4.8026 1.5461,7.1426 -3.7118,-0.2247 -4.8787,-3.932 -4.8663,-7.1447 l 3.0925,0 z" fill="#FEB330" fill-opacity="1" stroke="none"></path></g></g></svg>